# xmcd
#
# Track frame offsets:
# 150
# 16225
# 30584
# 46308
# 62368
# 79595
# 96723
# 111925
# 127205
# 143020
# 159236
# 175476
# 175883
#
# Disc length: 2646 seconds
#
# Revision: 0
# Processed by: cddbd v1.5.2PL0 Copyright (c) Steve Scherf et al.
# Submitted via: CoinsHifi v1.9h contact@coinshifi.com
#
DISCID=a90a540d
DTITLE=James BLUNT - SOME KINDS OF TROUBLE
DYEAR=2010
DGENRE=Pop
TTITLE0=STAY THE NIGHT
TTITLE1=DANGEROUS
TTITLE2=BEST LAID PLANS
TTITLE3=SO FAR GONE
TTITLE4=NO TEARS
TTITLE5=SUPERSTAR
TTITLE6=THESE ARE THE WORDS
TTITLE7=CALLING OUT YOUR NAME
TTITLE8=HEART OF GOLD
TTITLE9=I'LL BE YOUR MAN
TTITLE10=IF TIME IS ALL I HAVE
TTITLE11=TURN ME ON
TTITLE12=/
EXTD=
EXTT0=Instrumental
EXTT1=Instrumental
EXTT2=Instrumental
EXTT3=Instrumental
EXTT4=Instrumental
EXTT5=Instrumental
EXTT6=Instrumental
EXTT7=Instrumental
EXTT8=Instrumental
EXTT9=Instrumental
EXTT10=Instrumental
EXTT11=Instrumental
EXTT12=Instrumental
PLAYORDER=
